<svg xmlns="http://www.w3.org/2000/svg" viewBox="0 0 44.77 40.87"><defs><style>.cls-1{fill:#ccc;}</style></defs><title>filter</title><g id="圖層_2" data-name="圖層 2"><g id="圖層_9" data-name="圖層 9"><path class="cls-1" d="M29.94,7.24c-4.32,0-8.63,0-13,0a.7.7,0,0,0-.74.49,5.38,5.38,0,0,1-4.9,3.39A5.5,5.5,0,0,1,6.09,7.88a.67.67,0,0,0-.68-.44c-1.15,0-2.3,0-3.44,0a1.83,1.83,0,0,1-2-2A1.8,1.8,0,0,1,2,3.64c1.18,0,2.36,0,3.53,0a.53.53,0,0,0,.55-.34A5.49,5.49,0,0,1,11.18,0a5.48,5.48,0,0,1,5.11,3.31c.18.35.41.32.7.32H42.64a3.6,3.6,0,0,1,.66,0,1.76,1.76,0,0,1,1.46,2A1.72,1.72,0,0,1,43,7.24h-13ZM11,3.78A1.61,1.61,0,0,0,9.3,5.42a2,2,0,0,0,1.83,2.1A1.87,1.87,0,0,0,13,5.72,1.9,1.9,0,0,0,11,3.78Z"/><path class="cls-1" d="M13,18.73H24.2c.27,0,.46,0,.59-.33a5.26,5.26,0,0,1,4.93-3.31A5.44,5.44,0,0,1,35,18.2a.88.88,0,0,0,.91.54c2.37,0,4.74,0,7.12,0a1.74,1.74,0,0,1,1.77,1.54,1.76,1.76,0,0,1-1.3,2,2.89,2.89,0,0,1-.66,0q-3.51,0-7,0a.7.7,0,0,0-.76.46A5.28,5.28,0,0,1,29.91,26a5.29,5.29,0,0,1-5.06-3.2.69.69,0,0,0-.74-.47q-11.08,0-22.17,0A1.77,1.77,0,0,1,0,20.23a1.78,1.78,0,0,1,1.87-1.5c2.49,0,5,0,7.49,0Zm16.92,0a1.85,1.85,0,1,0,1.84,1.85A1.81,1.81,0,0,0,29.94,18.69Z"/><path class="cls-1" d="M29.91,37.23c-4.32,0-8.63,0-12.95,0a.65.65,0,0,0-.7.46,5.28,5.28,0,0,1-5.11,3.19,5.28,5.28,0,0,1-5.06-3.19.64.64,0,0,0-.7-.46c-1.16,0-2.33,0-3.49,0A1.79,1.79,0,0,1,0,35.4a1.78,1.78,0,0,1,1.89-1.78c1.19,0,2.39,0,3.58,0A.53.53,0,0,0,6,33.26,5.29,5.29,0,0,1,11.13,30a5.47,5.47,0,0,1,5.1,3.19.76.76,0,0,0,.79.48q12.83,0,25.65,0a3.13,3.13,0,0,1,.81.06A1.8,1.8,0,0,1,43,37.22c-1,0-2,0-3.06,0Zm-18.74,0a1.86,1.86,0,1,0,0-3.71A1.88,1.88,0,0,0,9.3,35.44,1.86,1.86,0,0,0,11.17,37.27Z"/></g></g></svg>