<svg xmlns="http://www.w3.org/2000/svg" viewBox="0 0 31.48 31.48"><defs><style>.cls-1{fill:#fff;}</style></defs><title>資產 5</title><g id="圖層_2" data-name="圖層 2"><g id="ICONS"><path class="cls-1" d="M15.74,0c-4.27,0-4.81,0-6.49.09A11.62,11.62,0,0,0,5.43.83,7.83,7.83,0,0,0,2.64,2.64,7.74,7.74,0,0,0,.83,5.43,11.39,11.39,0,0,0,.1,9.25C0,10.93,0,11.47,0,15.74s0,4.81.1,6.49a11.39,11.39,0,0,0,.73,3.82,7.74,7.74,0,0,0,1.81,2.79,7.83,7.83,0,0,0,2.79,1.81,11.39,11.39,0,0,0,3.82.73c1.68.08,2.22.1,6.49.1s4.81,0,6.49-.1a11.34,11.34,0,0,0,3.82-.73,8,8,0,0,0,4.6-4.6,11.62,11.62,0,0,0,.74-3.82c.07-1.68.09-2.22.09-6.49s0-4.81-.09-6.49a11.62,11.62,0,0,0-.74-3.82,8,8,0,0,0-4.6-4.6A11.56,11.56,0,0,0,22.23.09C20.55,0,20,0,15.74,0m0,2.84c4.2,0,4.7,0,6.36.09A8.53,8.53,0,0,1,25,3.47a4.9,4.9,0,0,1,1.81,1.18A4.78,4.78,0,0,1,28,6.46a8.59,8.59,0,0,1,.54,2.92c.08,1.66.09,2.16.09,6.36s0,4.7-.09,6.36A8.59,8.59,0,0,1,28,25a4.78,4.78,0,0,1-1.18,1.81A4.9,4.9,0,0,1,25,28a8.53,8.53,0,0,1-2.92.54c-1.66.08-2.16.09-6.36.09s-4.7,0-6.36-.09A8.59,8.59,0,0,1,6.46,28a4.9,4.9,0,0,1-1.81-1.18A4.9,4.9,0,0,1,3.47,25a8.59,8.59,0,0,1-.54-2.92c-.08-1.66-.09-2.16-.09-6.36s0-4.7.09-6.36a8.59,8.59,0,0,1,.54-2.92A4.9,4.9,0,0,1,4.65,4.65,4.9,4.9,0,0,1,6.46,3.47a8.59,8.59,0,0,1,2.92-.54c1.66-.08,2.16-.09,6.36-.09"/><path class="cls-1" d="M15.74,21A5.25,5.25,0,1,1,21,15.74,5.25,5.25,0,0,1,15.74,21m0-13.33a8.08,8.08,0,1,0,8.08,8.08,8.08,8.08,0,0,0-8.08-8.08"/><path class="cls-1" d="M26,7.34a1.89,1.89,0,1,1-1.89-1.89A1.89,1.89,0,0,1,26,7.34"/></g></g></svg>