<svg xmlns="http://www.w3.org/2000/svg" viewBox="0 0 39.11 36.99"><defs><style>.cls-1{fill:#fff;}</style></defs><title>line</title><g id="圖層_2" data-name="圖層 2"><g id="ICONS"><path class="cls-1" d="M28.55,16.92V18.7h3a1,1,0,0,1,0,2h-4a1,1,0,0,1-1-1V12.15a1,1,0,0,1,1-1h4a1,1,0,1,1,0,2h-3v1.77h3a1,1,0,0,1,0,2Zm-3.5,2.74a1,1,0,0,1-1,1,1.09,1.09,0,0,1-.68-.27c-.06-.06-4.11-5.31-4.11-5.31V19.7a1,1,0,1,1-2,0V12.19a1,1,0,0,1,1-1,1,1,0,0,1,.78.33l4.06,5.28V12.15a1,1,0,0,1,2,0v7.51Zm-9.3.26a.78.78,0,0,1-.78.78h-.44a.78.78,0,0,1-.78-.78v-8a.78.78,0,0,1,.78-.78H15a.78.78,0,0,1,.78.78v8ZM12.8,19.7a1,1,0,0,1-1,1h-4a1,1,0,0,1-1-1V12.15a1,1,0,0,1,2,0V18.7h3a1,1,0,0,1,1,1Zm26.28-4.87C38.6,6.57,30,0,19.55,0,8.75,0,0,7,0,15.55,0,23.44,7.39,30,17,31a1.08,1.08,0,0,1,1,1.18l-.41,3.67A1.06,1.06,0,0,0,19,36.88C27.13,33,32,29,34.85,25.48c.53-.63,2.24-3,2.6-3.67a13.06,13.06,0,0,0,1.49-4.28,9.71,9.71,0,0,0,.15-1.18,14.54,14.54,0,0,0,0-1.52Z"/></g></g></svg>