<?xml version="1.0" encoding="utf-8"?>
<!-- Generator: Adobe Illustrator 22.1.0, SVG Export Plug-In . SVG Version: 6.00 Build 0)  -->
<svg version="1.1" id="Layer_1" xmlns="http://www.w3.org/2000/svg" xmlns:xlink="http://www.w3.org/1999/xlink" x="0px" y="0px"
	 viewBox="0 0 64 44" style="enable-background:new 0 0 64 44;" xml:space="preserve">
<style type="text/css">
	.st0{fill:#FFFFFF;}
</style>
<path class="st0" d="M63,0.8C62.5,0.3,61.8,0,61,0H3C2.2,0,1.5,0.3,1,0.8L32,25L63,0.8z M0.9,0.9C0.3,1.4,0,2.2,0,3v38
	c0,0.8,0.3,1.5,0.8,2l19.6-23.3L0.9,0.9z M32,31l-8.1-7.9L0.9,43.2C1.5,43.7,2.2,44,3,44h58c0.8,0,1.5-0.3,2.1-0.8L40.1,23.1L32,31z
	 M63.1,0.9L43.6,19.7L63.2,43c0.5-0.5,0.8-1.2,0.8-2V3C64,2.2,63.7,1.4,63.1,0.9z"/>
</svg>
