<?xml version="1.0" encoding="utf-8"?>
<!-- Generator: Adobe Illustrator 22.1.0, SVG Export Plug-In . SVG Version: 6.00 Build 0)  -->
<svg version="1.1" id="圖層_1" xmlns="http://www.w3.org/2000/svg" xmlns:xlink="http://www.w3.org/1999/xlink" x="0px" y="0px"
	 viewBox="0 0 4223 2500" style="enable-background:new 0 0 4223 2500;" xml:space="preserve">
<style type="text/css">
	.st0{fill:#FFFFFF;}
</style>
<g>
	<path class="st0" d="M2010.5,1169.2c-50,0-85.4,25.8-100,83.9h156.4C2075,1207.9,2060.6,1169.2,2010.5,1169.2z"/>
	<path class="st0" d="M920.6,1348.2c-40.4,27.4-51.5,75.8-9.6,91.9c40.4,15.6,99.9-11.3,108-53.4l9.6-50
		C1007.7,1333.6,960.8,1320.8,920.6,1348.2z"/>
	<path class="st0" d="M3049,1348.2c-40.4,27.4-51.7,75.8-9.6,91.9c40.4,15.6,99.9-11.3,108-53.4l9.6-50l0,0
		C3136,1333.6,3089.4,1320.8,3049,1348.2z"/>
	<path class="st0" d="M1028.6,1336.9L1028.6,1336.9L1028.6,1336.9z"/>
	<path class="st0" d="M3737.4,1299.8c-17.8,66.1,20.9,116,64.5,116c46.9,0,75.8-37.1,98.4-93.6l0,0c13-41.9,5.9-94.3-8.2-112.8
		C3853.6,1157.9,3764.5,1198.7,3737.4,1299.8z"/>
	<path class="st0" d="M2972.8,0c-299.6,0-572.1,104.9-787.4,280.5c164.1,158.6,289.6,357,356.8,581.4h-103.9
		c-65-199.5-179.3-375.5-328.1-516.7c-149.7,142.5-261.6,319.8-325.9,516.2h-103.9c66.3-220.3,187.9-420,353.1-579.9
		C1819,107.5,1547.7,0,1249.8,0C559.5,0-0.2,559.7-0.2,1250s559.7,1250,1250,1250c297.9,0,569.1-107.5,783.9-281.4
		c-162.9-158-286.2-356.8-353.1-579.9h103.9c64.3,196.4,176.4,373.7,325.9,516.2c148.6-141.2,262.9-317.2,328.1-516.7h103.9
		c-67.3,224.4-192.7,423-356.8,581.4c215.3,175.6,487.8,280.5,787.4,280.5c690.3,0,1250-559.7,1250-1250
		C4222.8,559.7,3663.1,0,2972.8,0z M696.4,1543.3H565.8l74.1-393.3l-175.6,393.3H345l-33.9-403.1l-77.4,403.1H107.8l108-557.8h201.6
		l24.3,338.7l153.2-338.7h206.4L696.4,1543.3L696.4,1543.3z M1009.4,1543.3l-16.1-25.8c-22.6,16.1-40.4,24.3-104.9,27.4
		c-64.5,3.1-146.7-45.2-132.1-140.2c35.4-193.4,261.2-158,293.5-161.2c14.5-69.3-33.9-62.8-77.4-64.5
		c-43.5-1.7-125.8,11.3-156.4,14.5l19.3-100l0,0c82.3-16.1,125.8-14.5,164.5-16.1c211.2,0,190.3,151.5,177.3,214.5l-50,251.6h-117.6
		V1543.3z M1520.3,1412.7c-20.9,138.8-170.8,130.6-201.6,130.6c-43.5,0-90.2,0-148.4-16.1l17.8-95c62.8,20.9,146.7,11.3,166,11.3
		c42.2,0,48-53.4,16.1-69.3c-25.8-13-53.2-32.2-101.5-53.2c-30-13-61.3-48.4-43.5-133.8c23.2-111.5,174.2-109.7,191.9-109.7
		s64.5-4.8,124.1,17.8l-29.1,93.6c-35.6-9.6-95.2-9.6-124.1-6.5c-46.7,13-27.4,56.5-1.7,67.6c25.8,11.3,66.1,33.9,90.2,50
		C1501.1,1314.3,1530.7,1345,1520.3,1412.7z M1738,1522.2c-27.4,17.8-64.5,22.6-93.6,22.6s-124.1-17.8-99.9-143.6l87.1-438.5h125.8
		l-25.8,122.5h67.6l-22.6,100h-64.5l-35.6,186.9c-6.5,35.6-3.1,67.8,69.3,56.5L1738,1522.2z M2176.7,1336.9h-274
		c-14.5,104.9,66.1,101.5,116.2,101.5c50,0,122.6-6.5,141.9-11.3l-19.3,95c-30.6,16.1-108,22.6-161.4,20.9
		c-217.7,0-214.4-204.7-209.5-233.8s30.6-230.5,233.8-230.5C2225.1,1078.8,2191.2,1262.6,2176.7,1336.9L2176.7,1336.9z
		 M2344.8,1333.6l-38.7,209.7h-125.8l0,0l0,0l85.4-458h108l11.3,45.2c19.5-22.6,56.5-45.2,119.3-45.2l-32.2,121
		C2441.5,1206.3,2381.8,1196.6,2344.8,1333.6z M2776.4,1091.8c-41.9,0-135.4,40-153.2,153.2c-20.9,133.8,71,199.9,199.9,156.4
		l37.1,112.8c-41.9,19.3-83.9,29.1-153.2,29.1c-130.6,0-272.5-116-208.1-351.5c47.6-173.4,196.8-237,283.8-233.8
		c103.2,3.9,140.2,38.7,172.5,74.1l-82.3,82.3C2840.9,1094.9,2818.3,1091.8,2776.4,1091.8z M3137.7,1543.3l-16.1-25.8
		c-22.6,16.1-40.4,24.3-104.9,27.4c-64.5,3.1-146.7-45.2-132.1-140.2c35.4-193.4,261.2-158,293.5-161.2
		c14.5-69.3-33.9-62.8-77.4-64.5s-125.8,11.3-156.4,14.5l19.5-100l0,0c82.3-16.1,125.8-14.5,164.5-16.1
		c211.2,0,190.3,151.5,177.5,214.5l-50,251.6h-118V1543.3z M3470.3,1331.1l-39.1,211.8h-127.1l0,0l86.3-462.4h109.1l11.5,45.6
		c19.6-22.8,57.1-45.6,120.6-45.6l-34.1,120.4C3566.4,1200.7,3507.7,1192.8,3470.3,1331.1z M3866.4,1543.3l-16.1-37.1
		c-25.8,17.8-67.6,35.6-109.7,37.1c-90.2,0-173-127.6-132.1-267.7c61.3-209.5,169.3-196.8,238.6-196.8c59.7,0,74.1,37.1,98.4,54.8
		l0,0l33.7-177.3h132.3l-109.7,586.9H3866.4z"/>
</g>
</svg>
