<svg xmlns="http://www.w3.org/2000/svg" viewBox="0 0 24.39 24.39"><defs><style>.cls-1{fill:#fff;}</style></defs><title>資產 9</title><g id="圖層_2" data-name="圖層 2"><g id="ICONS"><path class="cls-1" d="M23.62,22.75c-1.52,1.67-2.65,2.29-7.2.8S7,17.4,7,17.4,2.34,12.52.84,8,0,2.3,1.64.77,4.77.33,5.5,1.13,8.56,5.21,8.56,5.21a2,2,0,0,1-.22,2.33c-1,.91-1.74,1.08-2,1.83s-.53,1,.45,2.61l.19.29a17.59,17.59,0,0,0,5.12,5.12l.3.19c1.56,1,1.85.69,2.6.45s.92-1,1.84-2a2,2,0,0,1,2.32-.22s3.28,2.33,4.08,3.06,1.89,2.18.36,3.86ZM18.48,11.69l-1.23-.13a4,4,0,0,0-4.41-4.42L12.7,5.91a5.23,5.23,0,0,1,5.78,5.78Zm2.71.29L20,11.84a6.74,6.74,0,0,0-7.41-7.41l-.13-1.22A8,8,0,0,1,21.19,12Zm2.66.28-1.23-.13A9.4,9.4,0,0,0,12.26,1.77L12.13.55A10.64,10.64,0,0,1,23.85,12.26Z"/></g></g></svg>