<svg xmlns="http://www.w3.org/2000/svg" viewBox="0 0 30.59 24.86"><defs><style>.cls-1{fill:#fff;}</style></defs><title>資產 7</title><g id="圖層_2" data-name="圖層 2"><g id="ICONS"><path class="cls-1" d="M0,22a17.79,17.79,0,0,0,9.62,2.82c11.65,0,18.23-9.84,17.84-18.67a12.73,12.73,0,0,0,3.13-3.25,12.54,12.54,0,0,1-3.61,1A6.2,6.2,0,0,0,29.74.46a12.45,12.45,0,0,1-4,1.52,6.28,6.28,0,0,0-10.7,5.73A17.79,17.79,0,0,1,2.13,1.15,6.29,6.29,0,0,0,4.07,9.53a6.19,6.19,0,0,1-2.84-.79,6.28,6.28,0,0,0,5,6.24,6.25,6.25,0,0,1-2.83.1,6.27,6.27,0,0,0,5.86,4.36A12.62,12.62,0,0,1,0,22Z"/></g></g></svg>