<svg xmlns="http://www.w3.org/2000/svg" viewBox="0 0 28.09 28.09"><defs><style>.cls-1{fill:#4d4d4d;}.cls-2{fill:#fff;}</style></defs><title>addwish</title><g id="圖層_2" data-name="圖層 2"><g id="圖層_9" data-name="圖層 9"><circle class="cls-1" cx="14.04" cy="14.04" r="14.04"/><path class="cls-2" d="M22.24,7.07a5.24,5.24,0,0,0-3.89-1.7,4.93,4.93,0,0,0-3.07,1.06A6.35,6.35,0,0,0,14,7.72a6.31,6.31,0,0,0-1.23-1.29A4.93,4.93,0,0,0,9.74,5.37a5.27,5.27,0,0,0-3.9,1.7A6.12,6.12,0,0,0,4.3,11.23,7.24,7.24,0,0,0,6.23,16a41.56,41.56,0,0,0,4.84,4.54c.67.57,1.43,1.22,2.22,1.91a1.13,1.13,0,0,0,1.51,0c.79-.69,1.55-1.34,2.22-1.91A41.56,41.56,0,0,0,21.86,16a7.24,7.24,0,0,0,1.93-4.75A6.08,6.08,0,0,0,22.24,7.07Z"/></g></g></svg>