<svg xmlns="http://www.w3.org/2000/svg" viewBox="0 0 37.34 37.34"><defs><style>.cls-1{fill:#4d4d4d;}.cls-2{fill:#fff;}</style></defs><title>cart_add</title><g id="圖層_2" data-name="圖層 2"><g id="圖層_9" data-name="圖層 9"><circle class="cls-1" cx="18.67" cy="18.67" r="18.67"/><circle class="cls-2" cx="15.16" cy="27.38" r="2.87"/><path class="cls-2" d="M24.34,24.49h0a2.89,2.89,0,1,0-.56,5.76,2.62,2.62,0,0,0,.56,0,2.89,2.89,0,0,0,0-5.76Z"/><path class="cls-2" d="M30.49,13.54a.75.75,0,0,0-.64-.32H26.66a6,6,0,0,0-4.11-5.71,6.12,6.12,0,0,0-8.12,5.65h0v.06H12l-.83-3.48a.84.84,0,0,0-.83-.6H6.79v1.53H9.53l2.52,11.58a.8.8,0,0,0,.79.65H27.78a.83.83,0,0,0,.81-.63l2.07-8A.77.77,0,0,0,30.49,13.54ZM20.34,17.62a4.43,4.43,0,1,1,4.42-4.43A4.43,4.43,0,0,1,20.34,17.62Z"/><path class="cls-2" d="M23.47,12.14h-1.8a.26.26,0,0,1-.26-.25V10a.25.25,0,0,0-.25-.25H19.62a.25.25,0,0,0-.25.25v1.87a.25.25,0,0,1-.25.25H17.31a.25.25,0,0,0-.25.25v1.54a.26.26,0,0,0,.25.26h1.81a.25.25,0,0,1,.25.25V16.3a.25.25,0,0,0,.25.25h1.54a.25.25,0,0,0,.25-.25V14.44a.26.26,0,0,1,.26-.25h1.8a.26.26,0,0,0,.25-.26V12.39A.25.25,0,0,0,23.47,12.14Z"/></g></g></svg>