<svg xmlns="http://www.w3.org/2000/svg" viewBox="0 0 182.41 215.26"><defs><style>.cls-1{fill:#fff;}</style></defs><title>資產 8</title><g id="圖層_2" data-name="圖層 2"><g id="ICONS"><path class="cls-1" d="M155.32,16.23c-10-11.36-28-16.23-51-16.23H37.39a9.57,9.57,0,0,0-9.46,8.08L.07,184.74a5.75,5.75,0,0,0,5.68,6.64h41.3l10.37-65.79-.32,2.06a9.55,9.55,0,0,1,9.43-8.08H86.15c38.55,0,68.75-15.66,77.56-61,.26-1.33.68-3.91.68-3.91,2.51-16.77,0-28.14-9.07-38.46Z"/><path class="cls-1" d="M174.85,63.27c-9.59,44.6-40.18,68.2-88.7,68.2H68.55L55.42,215.26H84a8.37,8.37,0,0,0,8.27-7.07l.34-1.77,6.56-41.59.43-2.3a8.36,8.36,0,0,1,8.27-7.06H113c33.73,0,60.14-13.7,67.85-53.33,3.1-15.9,1.62-29.23-6-38.87Z"/></g></g></svg>